<svg width="58" height="58" viewBox="0 0 58 58" fill="none" xmlns="http://www.w3.org/2000/svg">
<path d="M29 0C13.0094 0 0 13.0094 0 29C0 44.9906 13.0094 58 28.9998 58C44.9903 58 57.9998 44.9906 57.9998 29C57.9998 13.0094 44.9906 0 29 0ZM26.6674 2.25784H31.1661V6.75652H26.6674V2.25784ZM49.2531 29C49.2531 40.1677 40.1675 49.2531 29 49.2531C17.8325 49.2531 8.74719 40.1675 8.74719 29C8.74719 17.8325 17.8328 8.74694 29 8.74694C40.1675 8.74694 49.2531 17.8325 49.2531 29ZM11.6811 8.50001L14.8621 11.6811L11.6811 14.8621L8.50001 11.6811L11.6811 8.50001ZM6.67329 31.2493H2.17461V26.7507H6.67329V31.2493ZM11.6811 49.5002L8.50001 46.3192L11.6811 43.1381L14.8621 46.3192L11.6811 49.5002ZM31.1661 55.7422H26.6674V51.2435H31.1661V55.7422ZM46.3189 49.5002L43.1379 46.3192L46.3189 43.1381L49.5 46.3192L46.3189 49.5002ZM46.3189 14.8621L43.1379 11.6811L46.3189 8.50001L49.5 11.6811L46.3189 14.8621ZM51.1603 31.2493V26.7507H55.6589V31.2493H51.1603Z" fill="#1E91CA"/>
</svg>
